<svg width="154" height="40" viewBox="0 0 154 40" fill="none" xmlns="http://www.w3.org/2000/svg">
<path d="M10.558 16.2485C9.33567 16.7503 8.05081 17.0036 6.71302 17.0036C4.55235 17.0036 2.89694 16.3632 1.7372 15.0824C0.577457 13.8017 0 11.9092 0 9.40024C0 8.18639 0.158803 7.08722 0.48122 6.10276C0.798825 5.11829 1.25598 4.28674 1.84788 3.59857C2.43978 2.91517 3.1568 2.3847 3.99894 2.01194C4.84107 1.63918 5.78426 1.45281 6.82851 1.45281C7.5359 1.45281 8.19517 1.51494 8.80632 1.63441C9.41266 1.75389 9.99975 1.94027 10.558 2.18399V4.21506C10.0046 3.91398 9.43191 3.68459 8.84001 3.5221C8.24811 3.36439 7.59846 3.28315 6.90069 3.28315C6.20292 3.28315 5.53402 3.41696 4.95656 3.68458C4.37428 3.95221 3.88345 4.33931 3.47923 4.84588C3.075 5.35246 2.76221 5.97371 2.54566 6.7049C2.32911 7.43608 2.21842 8.27241 2.21842 9.20909C2.21842 11.1732 2.61783 12.6595 3.42147 13.6583C4.2251 14.6571 5.39929 15.1541 6.95363 15.1541C7.60809 15.1541 8.23367 15.0777 8.83519 14.9295C9.43671 14.7766 10.0142 14.5663 10.5676 14.2987V16.2485H10.558Z" fill="#1D1D1B"/>
<path d="M24.1765 10.8961C24.1765 11.8041 24.0466 12.6308 23.7915 13.3859C23.5365 14.141 23.1659 14.7861 22.6799 15.3262C22.1987 15.8662 21.6068 16.282 20.9138 16.5783C20.2209 16.8746 19.4317 17.0275 18.551 17.0275C17.6704 17.0275 16.9534 16.8984 16.2893 16.6404C15.6252 16.3823 15.0574 16 14.5954 15.4982C14.1334 14.9964 13.7773 14.3704 13.5319 13.6296C13.2865 12.8841 13.1614 12.0334 13.1614 11.0633C13.1614 10.1553 13.2913 9.33333 13.5463 8.58303C13.8014 7.83751 14.1719 7.19235 14.658 6.6571C15.1392 6.11708 15.7311 5.70131 16.424 5.40502C17.117 5.10872 17.9062 4.95579 18.7868 4.95579C19.6675 4.95579 20.3845 5.08482 21.0486 5.34289C21.7126 5.60095 22.2805 5.98327 22.7425 6.48028C23.2044 6.9773 23.5605 7.59856 23.8059 8.34408C24.0514 9.0896 24.1765 9.94026 24.1765 10.9008V10.8961ZM22.0976 10.9869C22.0976 10.2652 22.0158 9.63919 21.857 9.09917C21.6982 8.55914 21.4672 8.11469 21.1737 7.75149C20.8753 7.39307 20.5192 7.12068 20.0909 6.93908C19.6675 6.75748 19.191 6.66667 18.6713 6.66667C18.065 6.66667 17.5453 6.78614 17.1122 7.02031C16.6791 7.25448 16.323 7.5699 16.0487 7.96655C15.7696 8.36321 15.5675 8.82199 15.4423 9.3429C15.3124 9.86381 15.2499 10.4134 15.2499 10.9869C15.2499 11.7085 15.3317 12.3393 15.4905 12.8793C15.6493 13.4194 15.8802 13.8734 16.1738 14.2318C16.4721 14.5902 16.8283 14.8626 17.2517 15.0442C17.6704 15.2258 18.1468 15.3166 18.6761 15.3166C19.2825 15.3166 19.8022 15.1971 20.2353 14.963C20.6684 14.7288 21.0245 14.4134 21.2988 14.0167C21.5731 13.6201 21.78 13.1613 21.9051 12.6404C22.0302 12.1195 22.0976 11.5651 22.0976 10.9869Z" fill="#1D1D1B"/>
<path d="M30.8799 21.5771V16.9797C29.1571 16.8889 27.8675 16.3728 27.0157 15.4361C26.1639 14.4994 25.7356 13.0323 25.7356 11.0346C25.7356 10.0358 25.8608 9.17562 26.111 8.44922C26.3612 7.72759 26.7125 7.12068 27.1649 6.638C27.6172 6.15532 28.161 5.78256 28.7914 5.51972C29.4218 5.25688 30.1195 5.08482 30.8847 4.9988V0.410999H32.7999V4.97491C33.6565 5.03704 34.4072 5.18996 35.0521 5.43369C35.6969 5.67742 36.231 6.03585 36.6641 6.50419C37.0972 6.97253 37.4245 7.56989 37.641 8.29152C37.8576 9.01314 37.9682 9.88292 37.9682 10.8961C37.9682 11.9092 37.8335 12.8315 37.564 13.5675C37.2945 14.3035 36.9288 14.9104 36.4572 15.3835C35.9904 15.8614 35.4418 16.2198 34.8163 16.4683C34.1907 16.7168 33.517 16.8793 32.7999 16.9558V21.5771H30.8799ZM30.8751 6.63322C30.3361 6.70968 29.8597 6.86739 29.4507 7.10156C29.0368 7.33573 28.7048 7.65114 28.4545 8.03823C28.2043 8.42533 28.0262 8.86499 27.9204 9.362C27.8145 9.85902 27.7616 10.3847 27.7616 10.9391C27.7616 11.6272 27.8193 12.2294 27.9348 12.7407C28.0503 13.2521 28.238 13.687 28.4882 14.0454C28.7433 14.4038 29.0609 14.6906 29.4507 14.9008C29.8405 15.1111 30.312 15.2497 30.8655 15.3166V6.63322H30.8751ZM32.7951 15.3166C33.3341 15.2402 33.8057 15.0824 34.2099 14.8531C34.6141 14.6189 34.9414 14.313 35.1916 13.9355C35.4418 13.5579 35.6247 13.1183 35.745 12.6213C35.8653 12.1243 35.9279 11.589 35.9279 11.006C35.9279 10.2557 35.8605 9.6153 35.721 9.08961C35.5814 8.56393 35.3841 8.12904 35.1194 7.78495C34.8548 7.44086 34.5275 7.17801 34.1377 7.00119C33.748 6.82437 33.3004 6.70012 32.7951 6.62843V15.3166Z" fill="#1D1D1B"/>
<path d="M25.264 35.2401L25.2159 33.6726C24.5759 34.2987 23.9262 34.7527 23.2718 35.0299C22.6125 35.3071 21.9196 35.4504 21.1977 35.4504C20.5288 35.4504 19.9562 35.3644 19.4798 35.1971C19.0034 35.0251 18.6136 34.7909 18.3056 34.4946C17.9976 34.1983 17.7715 33.8447 17.6271 33.4433C17.4827 33.0418 17.4105 32.6022 17.4105 32.129C17.4105 30.9582 17.8484 30.0454 18.7243 29.3811C19.6001 28.7168 20.8994 28.3871 22.6125 28.3871H25.0427V27.3644C25.0427 26.6762 24.8213 26.1219 24.3786 25.7109C23.9359 25.2951 23.2574 25.0896 22.343 25.0896C21.679 25.0896 21.0293 25.1613 20.3845 25.3094C19.7396 25.4576 19.0756 25.6679 18.3922 25.9355V24.1147C18.6473 24.0239 18.936 23.9331 19.2536 23.8423C19.5712 23.7515 19.9033 23.675 20.2545 23.6033C20.6058 23.5317 20.9716 23.4791 21.3517 23.4361C21.7319 23.3931 22.1217 23.374 22.5115 23.374C23.2189 23.374 23.8589 23.4504 24.4267 23.6081C24.9946 23.761 25.4758 24 25.8704 24.3154C26.265 24.6308 26.5682 25.0323 26.7751 25.5102C26.982 25.9881 27.0927 26.5567 27.0927 27.2067V35.2401H25.264ZM25.0427 29.9307H22.4585C21.9533 29.9307 21.5153 29.9833 21.1496 30.0836C20.7839 30.184 20.4855 30.3274 20.2497 30.5137C20.0139 30.7001 19.8407 30.9199 19.73 31.1828C19.6193 31.4409 19.5616 31.7324 19.5616 32.0574C19.5616 32.282 19.5953 32.497 19.6675 32.7025C19.7396 32.908 19.8503 33.0896 20.0043 33.2473C20.1583 33.405 20.3604 33.5341 20.6106 33.6249C20.8609 33.7157 21.1641 33.7634 21.525 33.7634C21.9918 33.7634 22.5307 33.6201 23.1322 33.3381C23.7338 33.0562 24.3738 32.6069 25.0427 31.9952V29.9307Z" fill="#1D1D1B"/>
<path d="M40.9181 29.1995C40.9181 30.2366 40.7738 31.1446 40.4802 31.9188C40.1867 32.693 39.7824 33.3333 39.2723 33.8447C38.7623 34.356 38.1511 34.7384 37.4485 34.9964C36.746 35.2497 35.9856 35.3787 35.1675 35.3787C34.7922 35.3787 34.4217 35.3596 34.0511 35.3214C33.6806 35.2832 33.3052 35.2162 32.9251 35.1254V40H30.8895V23.5842H32.7037L32.8336 25.534C33.4159 24.736 34.0415 24.1768 34.7056 23.8566C35.3697 23.5364 36.0867 23.374 36.8566 23.374C37.5255 23.374 38.1174 23.5125 38.6227 23.7945C39.128 24.0717 39.5563 24.4683 39.8979 24.9749C40.2396 25.4815 40.4995 26.0932 40.6679 26.81C40.8411 27.5269 40.9229 28.325 40.9229 29.2091L40.9181 29.1995ZM38.8393 29.2951C38.8393 28.6834 38.7959 28.1242 38.7045 27.6129C38.6131 27.1015 38.4735 26.6667 38.2762 26.2987C38.0789 25.9355 37.8335 25.6488 37.5255 25.4433C37.2176 25.2378 36.8614 25.1374 36.438 25.1374C36.1829 25.1374 35.9183 25.1756 35.6536 25.2617C35.3889 25.3429 35.1146 25.4767 34.8307 25.6679C34.5468 25.859 34.2484 26.1075 33.9308 26.4229C33.6132 26.7384 33.2764 27.1255 32.9203 27.589V33.2425C33.2956 33.3955 33.6902 33.5197 34.0992 33.6105C34.5131 33.7013 34.9173 33.7443 35.3167 33.7443C36.4139 33.7443 37.2753 33.3763 37.9009 32.6356C38.5265 31.8949 38.8345 30.7814 38.8345 29.2951H38.8393Z" fill="#1D1D1B"/>
<path d="M66.341 4.43489H55.783V38.1458H50.8746V4.43489H40.3166V0H66.341V4.43489Z" fill="#2C4D9A"/>
<path d="M78.9682 21.3668C78.5591 21.5484 78.1261 21.6392 77.6785 21.6392C76.9519 21.6392 76.3985 21.4098 76.0087 20.9462C75.6189 20.4827 75.4264 19.7993 75.4264 18.8913C75.4264 18.4516 75.4793 18.055 75.5852 17.6965C75.6911 17.3381 75.8451 17.037 76.0424 16.7933C76.2397 16.5448 76.4803 16.3536 76.7642 16.2198C77.0481 16.086 77.3657 16.0191 77.7122 16.0191C77.9528 16.0191 78.1694 16.043 78.3763 16.086C78.5832 16.129 78.7757 16.1959 78.9634 16.2867V17.0227C78.7757 16.9128 78.5832 16.8315 78.3859 16.7742C78.1886 16.7168 77.9721 16.6882 77.7363 16.6882C77.5005 16.6882 77.2791 16.736 77.0818 16.8315C76.8845 16.9271 76.7209 17.0705 76.5861 17.2521C76.4514 17.4337 76.3455 17.6583 76.2734 17.9259C76.2012 18.1936 76.1627 18.4946 76.1627 18.8291C76.1627 19.5412 76.2974 20.0765 76.5669 20.4397C76.8364 20.8029 77.231 20.9797 77.7507 20.9797C77.9721 20.9797 78.1838 20.951 78.3811 20.8984C78.5832 20.8459 78.7757 20.7694 78.9634 20.6691V21.3763L78.9682 21.3668Z" fill="#1D1D1B"/>
<path d="M83.535 17.9833H82.0384V21.5723H81.3454V17.9833H79.8488V17.3524H83.5301V17.9833H83.535Z" fill="#1D1D1B"/>
<path d="M88.0392 17.3524L86.6966 21.1231C86.557 21.5054 86.4126 21.8351 86.2683 22.1123C86.1191 22.3895 85.9603 22.6189 85.7823 22.7957C85.609 22.9725 85.4165 23.1063 85.2048 23.1876C84.9931 23.2736 84.7621 23.3118 84.5022 23.3118C84.4348 23.3118 84.3723 23.3118 84.3193 23.3118C84.2664 23.3118 84.2039 23.307 84.1365 23.2975V22.6332C84.1942 22.6428 84.2568 22.6475 84.3242 22.6571C84.3915 22.6619 84.4637 22.6667 84.5407 22.6667C84.6658 22.6667 84.7813 22.6475 84.892 22.6093C85.0027 22.5711 85.1037 22.5042 85.2 22.4182C85.2962 22.3321 85.3877 22.2174 85.4791 22.0741C85.5705 21.9307 85.6523 21.7634 85.739 21.5675L84.1654 17.3524H84.9449L85.9411 20.1434L86.1432 20.7981L86.3694 20.1243L87.2933 17.3524H88.044H88.0392Z" fill="#1D1D1B"/>
<path d="M92.6108 20.9415L92.5675 22.6476H91.9419V21.5723H89.069V22.6476H88.453L88.4145 20.9415H88.4675C88.5685 20.9415 88.6599 20.9223 88.7514 20.8889C88.8428 20.8554 88.9246 20.7933 88.9968 20.6977C89.069 20.6021 89.1412 20.4731 89.2085 20.3059C89.2759 20.1386 89.3288 19.9235 89.3818 19.6607C89.4347 19.3979 89.478 19.0729 89.5165 18.6953C89.555 18.3178 89.5887 17.8686 89.6128 17.3524H92.0477V20.9415H92.6108ZM91.3644 17.9833H90.2672C90.2432 18.466 90.2095 18.8769 90.1662 19.2162C90.1229 19.5555 90.0747 19.8375 90.017 20.0669C89.9592 20.2963 89.8967 20.4779 89.8245 20.6165C89.7523 20.7551 89.6705 20.8602 89.5791 20.9415H91.3644V17.9833Z" fill="#1D1D1B"/>
<path d="M94.1122 17.3524V20.3202L95.8301 17.3524H96.4798V21.5675H95.7964V18.5998L94.0785 21.5675H93.4288V17.3524H94.1122Z" fill="#1D1D1B"/>
<path d="M98.0437 20.3536C98.1304 20.1577 98.2266 20.0096 98.3277 19.9092C98.4287 19.8088 98.5635 19.7419 98.7175 19.7085C98.5538 19.675 98.4143 19.6225 98.3084 19.546C98.2025 19.4695 98.1159 19.3835 98.0534 19.2832C97.9908 19.1828 97.9427 19.0777 97.9186 18.9677C97.8946 18.8578 97.8801 18.7431 97.8801 18.638C97.8801 18.4516 97.909 18.2796 97.9667 18.1171C98.0245 17.9546 98.1159 17.8112 98.2459 17.6918C98.3758 17.5723 98.5442 17.4767 98.7511 17.405C98.9581 17.3333 99.2564 17.2999 99.6462 17.2999C99.8628 17.2999 100.079 17.3094 100.291 17.3238C100.503 17.3381 100.71 17.3572 100.917 17.3811V21.5771H100.233V19.9427H99.6414C99.55 19.9427 99.4585 19.9522 99.3623 19.9713C99.266 19.9904 99.1794 20.0239 99.1024 20.0717C99.0254 20.1195 98.9532 20.1864 98.8907 20.2628C98.8281 20.3393 98.7704 20.4397 98.7223 20.5591L98.2892 21.5771H97.5144L98.0534 20.3584L98.0437 20.3536ZM98.5827 18.6237C98.5827 18.8626 98.6597 19.0442 98.8137 19.1637C98.9677 19.2832 99.1939 19.3453 99.497 19.3453H100.233V17.9355C100.123 17.9259 100.012 17.9164 99.9061 17.9116C99.8002 17.9068 99.6895 17.902 99.574 17.902C99.3479 17.902 99.1794 17.9164 99.0591 17.9498C98.9388 17.9833 98.8474 18.0263 98.78 18.0884C98.7126 18.1505 98.6597 18.2222 98.6308 18.3082C98.602 18.3943 98.5827 18.4994 98.5827 18.6237Z" fill="#1D1D1B"/>
<path d="M110.021 20.3393C110.021 20.5305 109.983 20.7073 109.906 20.8698C109.829 21.0323 109.713 21.1661 109.555 21.2808C109.396 21.3955 109.194 21.4815 108.948 21.5436C108.703 21.6057 108.414 21.6392 108.072 21.6392C107.851 21.6392 107.615 21.6296 107.36 21.6105C107.11 21.5914 106.864 21.5675 106.634 21.5388V17.3763C106.879 17.3477 107.129 17.3238 107.379 17.3047C107.63 17.2855 107.904 17.2808 108.197 17.2808C108.727 17.2808 109.131 17.3716 109.41 17.558C109.689 17.7443 109.824 18.012 109.824 18.3608C109.824 18.5998 109.761 18.8053 109.632 18.9725C109.502 19.1398 109.309 19.2688 109.049 19.3501C109.174 19.374 109.295 19.4074 109.41 19.46C109.526 19.5125 109.632 19.5795 109.718 19.6607C109.81 19.7419 109.877 19.8423 109.93 19.9522C109.983 20.0621 110.012 20.1912 110.012 20.3345L110.021 20.3393ZM109.131 18.509C109.131 18.4086 109.112 18.3226 109.078 18.2461C109.044 18.1696 108.982 18.1028 108.905 18.0454C108.828 17.9881 108.722 17.945 108.592 17.9164C108.462 17.8877 108.308 17.8734 108.125 17.8734C107.962 17.8734 107.817 17.8734 107.692 17.8829C107.567 17.8877 107.447 17.902 107.326 17.9164V19.135H108.12C108.799 19.135 109.136 18.9247 109.136 18.509H109.131ZM109.299 20.3584C109.299 20.1386 109.208 19.9761 109.02 19.8662C108.837 19.7563 108.549 19.6989 108.159 19.6989H107.317V20.9893C107.447 21.0131 107.572 21.0275 107.697 21.037C107.822 21.0466 107.966 21.0514 108.13 21.0514C108.361 21.0514 108.554 21.0323 108.703 20.9988C108.852 20.9654 108.972 20.9176 109.059 20.8554C109.145 20.7933 109.208 20.7216 109.242 20.6356C109.275 20.5496 109.295 20.4588 109.295 20.3584H109.299Z" fill="#1D1D1B"/>
<path d="M114.386 19.2401C114.386 19.3453 114.386 19.4313 114.386 19.4982C114.386 19.5651 114.381 19.632 114.376 19.6941H111.609C111.609 20.1242 111.72 20.4588 111.946 20.6882C112.172 20.9176 112.495 21.037 112.918 21.037C113.034 21.037 113.149 21.0323 113.265 21.0227C113.38 21.0131 113.491 20.9988 113.597 20.9845C113.703 20.9654 113.809 20.951 113.905 20.9271C114.001 20.9032 114.092 20.8841 114.179 20.8554V21.4576C113.991 21.5149 113.784 21.5579 113.549 21.5962C113.313 21.6296 113.072 21.6488 112.822 21.6488C112.485 21.6488 112.192 21.601 111.951 21.5006C111.71 21.4002 111.508 21.2616 111.354 21.0753C111.2 20.8889 111.085 20.6595 111.008 20.3919C110.936 20.1195 110.897 19.8136 110.897 19.4743C110.897 19.178 110.936 18.8961 111.017 18.6332C111.099 18.3704 111.215 18.1362 111.369 17.9355C111.523 17.7348 111.71 17.5771 111.932 17.4576C112.153 17.3381 112.408 17.2808 112.687 17.2808C112.966 17.2808 113.207 17.3286 113.419 17.4194C113.63 17.5102 113.808 17.644 113.953 17.8112C114.097 17.9785 114.208 18.1888 114.285 18.4277C114.357 18.6714 114.396 18.9391 114.396 19.2401H114.386ZM113.679 19.135C113.688 18.9486 113.669 18.7766 113.626 18.6189C113.582 18.4612 113.52 18.3321 113.433 18.2174C113.347 18.1027 113.236 18.0167 113.106 17.9546C112.976 17.8925 112.822 17.859 112.649 17.859C112.5 17.859 112.365 17.8877 112.24 17.9498C112.115 18.0119 112.009 18.098 111.922 18.2079C111.835 18.3178 111.763 18.4564 111.706 18.6093C111.653 18.767 111.619 18.9391 111.605 19.1255H113.679V19.135Z" fill="#1D1D1B"/>
<path d="M115.993 18.3082C116.176 18.0358 116.383 17.8304 116.604 17.6918C116.826 17.5532 117.086 17.4863 117.365 17.4863C117.591 17.4863 117.798 17.5293 117.985 17.6201C118.173 17.7061 118.337 17.8399 118.476 18.0119C118.616 18.184 118.722 18.399 118.799 18.6523C118.876 18.9056 118.914 19.1971 118.914 19.5221C118.914 19.828 118.871 20.1147 118.779 20.3728C118.688 20.6308 118.563 20.8554 118.399 21.0466C118.236 21.2378 118.038 21.3811 117.812 21.4863C117.586 21.5914 117.336 21.644 117.066 21.644C116.782 21.644 116.532 21.5914 116.316 21.4863C116.099 21.3811 115.921 21.2186 115.777 21.0036C115.632 20.7885 115.526 20.5114 115.449 20.1816C115.372 19.8519 115.339 19.4552 115.339 19.0012C115.339 18.4421 115.382 17.9642 115.474 17.5723C115.56 17.1804 115.69 16.8554 115.863 16.5974C116.037 16.3393 116.243 16.1386 116.494 15.9904C116.744 15.8471 117.028 15.7419 117.35 15.6798C117.447 15.6607 117.543 15.6464 117.649 15.632C117.755 15.6177 117.856 15.6081 117.957 15.5938C118.058 15.5795 118.159 15.5699 118.25 15.5603C118.342 15.5508 118.428 15.5364 118.5 15.5173V16.1912C118.447 16.2055 118.39 16.2151 118.322 16.2246C118.255 16.2342 118.183 16.2437 118.111 16.2485C118.034 16.2581 117.957 16.2676 117.88 16.2724C117.803 16.2772 117.721 16.2915 117.649 16.3011C117.341 16.3441 117.09 16.411 116.893 16.5066C116.696 16.6022 116.537 16.7312 116.417 16.8937C116.296 17.0562 116.205 17.2569 116.142 17.491C116.08 17.7252 116.027 17.9976 115.988 18.3082H115.993ZM118.221 19.5508C118.221 19.307 118.197 19.0968 118.144 18.9152C118.091 18.7336 118.024 18.5854 117.942 18.466C117.86 18.3465 117.759 18.2557 117.649 18.1983C117.538 18.141 117.422 18.1123 117.302 18.1123C117.182 18.1123 117.066 18.1314 116.96 18.1697C116.855 18.2079 116.754 18.2652 116.657 18.3369C116.561 18.4086 116.46 18.5042 116.359 18.6189C116.258 18.7336 116.152 18.8722 116.041 19.0394V19.1207C116.041 19.503 116.07 19.8136 116.123 20.0573C116.176 20.3011 116.253 20.497 116.345 20.6404C116.436 20.7838 116.551 20.8841 116.681 20.9415C116.811 20.9988 116.951 21.0275 117.11 21.0275C117.293 21.0275 117.451 20.9845 117.591 20.9032C117.73 20.822 117.846 20.7121 117.937 20.5735C118.029 20.4397 118.101 20.282 118.149 20.1051C118.197 19.9283 118.221 19.7467 118.221 19.5556V19.5508Z" fill="#1D1D1B"/>
<path d="M122.658 19.6272H120.31V18.9391H122.658V19.6272Z" fill="#1D1D1B"/>
<path d="M127.98 20.9415L127.937 22.6476H127.312V21.5723H124.439V22.6476H123.823L123.784 20.9415H123.837C123.938 20.9415 124.03 20.9223 124.121 20.8889C124.212 20.8554 124.294 20.7933 124.366 20.6977C124.439 20.6021 124.511 20.4731 124.578 20.3059C124.646 20.1386 124.699 19.9235 124.751 19.6607C124.804 19.3979 124.848 19.0729 124.886 18.6953C124.925 18.3178 124.958 17.8686 124.982 17.3524H127.417V20.9415H127.98ZM126.729 17.9833H125.632C125.608 18.466 125.574 18.8769 125.531 19.2162C125.488 19.5555 125.44 19.8375 125.382 20.0669C125.324 20.2963 125.262 20.4779 125.189 20.6165C125.117 20.7551 125.035 20.8602 124.944 20.9415H126.729V17.9833Z" fill="#1D1D1B"/>
<path d="M129.477 17.3524V20.3202L131.195 17.3524H131.845V21.5675H131.161V18.5998L129.443 21.5675H128.794V17.3524H129.477Z" fill="#1D1D1B"/>
<path d="M133.057 20.8172C133.173 20.8507 133.298 20.8793 133.428 20.9032C133.558 20.9271 133.688 20.951 133.818 20.9701C133.948 20.9892 134.068 21.0036 134.188 21.0131C134.308 21.0227 134.414 21.0275 134.511 21.0275C134.732 21.0275 134.92 21.0131 135.064 20.9797C135.208 20.9462 135.329 20.9032 135.415 20.8459C135.502 20.7885 135.564 20.7168 135.603 20.6356C135.641 20.5544 135.656 20.4588 135.656 20.3584C135.656 20.2581 135.641 20.1673 135.608 20.0812C135.574 20 135.516 19.9283 135.43 19.8662C135.343 19.8041 135.228 19.7563 135.083 19.7228C134.939 19.6894 134.751 19.6703 134.52 19.6703H133.553V19.1016H134.515C134.713 19.1016 134.876 19.0872 135.006 19.0585C135.131 19.0299 135.232 18.9916 135.305 18.9391C135.377 18.8865 135.43 18.8196 135.454 18.7479C135.478 18.6714 135.492 18.5854 135.492 18.4898C135.492 18.3943 135.478 18.3082 135.444 18.2366C135.41 18.1601 135.358 18.098 135.281 18.0454C135.204 17.9928 135.102 17.9546 134.977 17.9259C134.852 17.8973 134.698 17.8829 134.511 17.8829C134.308 17.8829 134.082 17.8973 133.837 17.9307C133.591 17.9642 133.351 18.0072 133.105 18.0645V17.448C133.211 17.4241 133.327 17.4002 133.452 17.3763C133.577 17.3525 133.702 17.3381 133.832 17.3238C133.962 17.3094 134.087 17.2999 134.217 17.2903C134.342 17.2808 134.467 17.276 134.578 17.276C134.886 17.276 135.146 17.3047 135.353 17.3572C135.56 17.4098 135.723 17.4863 135.853 17.5866C135.983 17.687 136.07 17.8017 136.118 17.9355C136.166 18.0693 136.195 18.2174 136.195 18.3752C136.195 18.4946 136.18 18.6045 136.147 18.7097C136.113 18.8148 136.065 18.9104 136.002 18.9916C135.935 19.0777 135.853 19.1493 135.752 19.2067C135.651 19.264 135.531 19.3071 135.391 19.3309C135.531 19.3548 135.666 19.3883 135.786 19.4409C135.906 19.4934 136.012 19.5603 136.099 19.6464C136.185 19.7324 136.257 19.8327 136.306 19.9522C136.354 20.0717 136.383 20.2055 136.383 20.3536C136.383 20.54 136.349 20.7121 136.281 20.8698C136.214 21.0275 136.103 21.1661 135.954 21.276C135.805 21.3859 135.603 21.4767 135.353 21.5436C135.102 21.6057 134.799 21.6392 134.438 21.6392C134.342 21.6392 134.236 21.6392 134.116 21.6296C134 21.6249 133.88 21.6105 133.755 21.601C133.63 21.5866 133.51 21.5723 133.389 21.5532C133.269 21.5341 133.158 21.5149 133.052 21.4863V20.8076L133.057 20.8172Z" fill="#1D1D1B"/>
<path d="M140.117 21.5723L140.102 21.0036C139.886 21.2282 139.669 21.3955 139.448 21.4958C139.227 21.5962 138.996 21.6488 138.75 21.6488C138.524 21.6488 138.331 21.6201 138.173 21.558C138.014 21.4958 137.879 21.4098 137.778 21.3047C137.672 21.1947 137.6 21.0705 137.552 20.9223C137.504 20.7742 137.48 20.6165 137.48 20.4492C137.48 20.0287 137.629 19.6941 137.922 19.4552C138.216 19.2162 138.654 19.0968 139.227 19.0968H140.045V18.7288C140.045 18.4803 139.972 18.2796 139.823 18.1314C139.674 17.9833 139.448 17.9068 139.14 17.9068C138.919 17.9068 138.697 17.9355 138.481 17.9881C138.264 18.0406 138.043 18.1171 137.812 18.2127V17.5532C137.898 17.5197 137.995 17.4863 138.1 17.4528C138.206 17.4194 138.317 17.3907 138.437 17.3668C138.553 17.3429 138.678 17.319 138.808 17.3047C138.938 17.2903 139.068 17.2808 139.198 17.2808C139.438 17.2808 139.65 17.3094 139.842 17.3668C140.035 17.4241 140.194 17.5102 140.329 17.6249C140.458 17.7395 140.564 17.8829 140.632 18.0597C140.699 18.2366 140.738 18.4373 140.738 18.6714V21.5771H140.126L140.117 21.5723ZM140.04 19.6511H139.174C139.005 19.6511 138.856 19.6703 138.736 19.7037C138.615 19.7372 138.514 19.7897 138.433 19.8614C138.356 19.9283 138.298 20.0096 138.259 20.1051C138.221 20.2007 138.202 20.3059 138.202 20.4206C138.202 20.5018 138.211 20.5783 138.235 20.6547C138.259 20.7312 138.298 20.7933 138.351 20.8507C138.404 20.908 138.471 20.9558 138.553 20.9893C138.635 21.0227 138.741 21.0418 138.861 21.0418C139.02 21.0418 139.198 20.9892 139.4 20.8889C139.602 20.7885 139.818 20.626 140.04 20.4014V19.6511Z" fill="#1D1D1B"/>
<path d="M142.744 17.3524V20.3202L144.462 17.3524H145.112V21.5675H144.429V18.5998L142.711 21.5675H142.061V17.3524H142.744ZM144.789 15.7276C144.789 15.8949 144.761 16.0382 144.703 16.1673C144.645 16.2963 144.563 16.4062 144.457 16.497C144.352 16.5878 144.222 16.6595 144.072 16.7073C143.923 16.7551 143.76 16.779 143.577 16.779C143.365 16.779 143.187 16.7551 143.038 16.7073C142.889 16.6595 142.768 16.5926 142.672 16.497C142.576 16.4062 142.508 16.2963 142.46 16.1673C142.417 16.0382 142.393 15.8901 142.393 15.7276H143.014C143.014 15.8088 143.023 15.8853 143.043 15.9522C143.062 16.0191 143.091 16.086 143.134 16.1386C143.177 16.1912 143.235 16.2342 143.307 16.2676C143.379 16.2963 143.471 16.3154 143.582 16.3154C143.692 16.3154 143.789 16.3011 143.861 16.2676C143.933 16.239 143.995 16.1959 144.039 16.1386C144.082 16.0813 144.116 16.0239 144.135 15.9522C144.154 15.8805 144.164 15.8088 144.164 15.7276H144.789Z" fill="#1D1D1B"/>
<path d="M149.592 21.5723H148.909V19.7085H147.109V21.5723H146.426V17.3572H147.109V19.0729H148.909V17.3572H149.592V21.5723Z" fill="#1D1D1B"/>
<path d="M153.379 21.5723L153.365 21.0036C153.148 21.2282 152.932 21.3955 152.71 21.4958C152.489 21.5962 152.258 21.6488 152.013 21.6488C151.786 21.6488 151.594 21.6201 151.435 21.558C151.276 21.4958 151.142 21.4098 151.04 21.3047C150.935 21.1947 150.862 21.0705 150.814 20.9223C150.766 20.7742 150.742 20.6165 150.742 20.4492C150.742 20.0287 150.891 19.6941 151.185 19.4552C151.478 19.2162 151.916 19.0968 152.489 19.0968H153.307V18.7288C153.307 18.4803 153.235 18.2796 153.086 18.1314C152.936 17.9833 152.71 17.9068 152.402 17.9068C152.181 17.9068 151.96 17.9355 151.743 17.9881C151.527 18.0406 151.305 18.1171 151.074 18.2127V17.5532C151.161 17.5197 151.257 17.4863 151.363 17.4528C151.469 17.4194 151.579 17.3907 151.7 17.3668C151.815 17.3429 151.94 17.319 152.07 17.3047C152.2 17.2903 152.33 17.2808 152.46 17.2808C152.701 17.2808 152.912 17.3094 153.105 17.3668C153.297 17.4241 153.456 17.5102 153.591 17.6249C153.721 17.7395 153.827 17.8829 153.894 18.0597C153.961 18.2366 154 18.4373 154 18.6714V21.5771H153.389L153.379 21.5723ZM153.302 19.6511H152.436C152.268 19.6511 152.118 19.6703 151.998 19.7037C151.878 19.7372 151.777 19.7897 151.695 19.8614C151.618 19.9283 151.56 20.0096 151.522 20.1051C151.483 20.2007 151.464 20.3059 151.464 20.4206C151.464 20.5018 151.474 20.5783 151.498 20.6547C151.522 20.7312 151.56 20.7933 151.613 20.8507C151.666 20.908 151.733 20.9558 151.815 20.9893C151.897 21.0227 152.003 21.0418 152.123 21.0418C152.282 21.0418 152.46 20.9892 152.662 20.8889C152.864 20.7885 153.081 20.626 153.302 20.4014V19.6511Z" fill="#1D1D1B"/>
</svg>
